# xmcd
#
# Track frame offsets:
#	150
#	12054
#	28305
#	46920
#	83836
#	116493
#	144783
#	164103
#	188802
#	206548
#	236766
#	296503
#	325047
#
# Disc length: 4548 seconds
#
# Revision: 2
# Processed by: cddbd v1.5.1PL2 Copyright (c) Steve Scherf et al.
# Submitted via: EasyCDDAExtractor 8.0.2.1
#
DISCID=af11c20d
DTITLE=Judas Priest - War Memorial Syracuse NY 03-08-80
DYEAR=1980
DGENRE=Hard Rock
TTITLE0=The Ripper
TTITLE1=Running Wild
TTITLE2=Living After Midnight
TTITLE3=Sinner
TTITLE4=Beyond The Realms Of Death
TTITLE5=You Don' Have To Be Old To Be Wise
TTITLE6=Grinder
TTITLE7=Victim Of Changes (Tape Cut)
TTITLE8=Victim Of Changes (Reprise)
TTITLE9=Steeler
TTITLE10=Genocide
TTITLE11=Tyrant
TTITLE12=Green Manalishi (With The Two-Pronged Crown)
EXTD=
EXTT0=
EXTT1=
EXTT2=
EXTT3=
EXTT4=
EXTT5=
EXTT6=
EXTT7=
EXTT8=
EXTT9=
EXTT10=
EXTT11=
EXTT12=
PLAYORDER=
